<?xml version="1.0" encoding="utf-8"?>
<!-- Generator: Adobe Illustrator 17.0.0, SVG Export Plug-In . SVG Version: 6.00 Build 0)  -->
<!DOCTYPE svg PUBLIC "-//W3C//DTD SVG 1.1//EN" "http://www.w3.org/Graphics/SVG/1.1/DTD/svg11.dtd">
<svg version="1.1" id="Layer_1" xmlns="http://www.w3.org/2000/svg" xmlns:xlink="http://www.w3.org/1999/xlink" x="0px" y="0px"
	 width="1014px" height="1024px" viewBox="0 0 1014 1024" enable-background="new 0 0 1014 1024" xml:space="preserve">
<path fill="#DD1955" d="M741.219,523.521c11.258-11.319,11.258-29.957,0-41.277l-328.7-328.509
	c-11.258-11.386-11.258-29.957,0-41.405l78.422-78.231c11.386-11.386,29.831-11.386,41.277,0l328.318,328.763
	c11.258,11.386,29.831,29.957,41.341,41.342l78.166,78.295c11.449,11.386,11.449,29.831,0,41.215L532.979,970.971
	c-11.449,11.512-30.086,11.512-41.532,0l-78.167-78.166c-11.512-11.386-11.512-30.022,0-41.341l327.936-327.936L741.219,523.521z"/>
</svg>
